<svg id="svg-source" height="0" version="1.1" 
  xmlns="http://www.w3.org/2000/svg" style="position:absolute; margin-left: -100%" 
  xmlns:xlink="http://www.w3.org/1999/xlink">
  <g id="gear" data-iconmelon="Dripicons:2ec8ef41f49cd62520bcfa8d499782ab">
    <g>
      <path d="M31.67,12.602c-0.122-0.475-0.521-0.826-1.006-0.89l-2.623-0.343c-0.057-0.153-0.097-0.256-0.102-0.268l-0.045-0.107
		c0,0-0.041-0.092-0.105-0.233l1.612-2.098c0.298-0.388,0.331-0.919,0.081-1.34c-0.027-0.047-0.69-1.158-2.169-2.638
		c-1.479-1.479-2.59-2.141-2.636-2.169C24.256,2.268,23.725,2.3,23.337,2.6L21.24,4.211c-0.142-0.064-0.233-0.105-0.233-0.105
		c-0.013-0.005-0.024-0.011-0.038-0.016l-0.098-0.04c0,0-0.094-0.036-0.24-0.09l-0.343-2.624c-0.063-0.485-0.416-0.883-0.89-1.006
		C19.346,0.316,18.091,0,16,0s-3.346,0.316-3.398,0.33c-0.474,0.123-0.826,0.521-0.89,1.006L11.369,3.96
		c-0.151,0.056-0.252,0.095-0.262,0.099l-0.08,0.033c-0.012,0.004-0.021,0.009-0.033,0.014c0,0-0.092,0.041-0.233,0.105L8.663,2.599
		C8.275,2.3,7.744,2.269,7.323,2.517c-0.047,0.028-1.157,0.69-2.638,2.17c-1.478,1.479-2.141,2.59-2.168,2.637
		c-0.25,0.421-0.217,0.952,0.081,1.341l1.612,2.097c-0.064,0.141-0.105,0.233-0.105,0.233l0.006,0.002
		c-0.022,0.042-0.043,0.086-0.061,0.131c0,0-0.036,0.096-0.092,0.242l-2.623,0.343c-0.485,0.063-0.883,0.415-1.006,0.89
		C0.317,12.654,0,13.909,0,16c0,2.092,0.317,3.346,0.33,3.398c0.123,0.474,0.521,0.826,1.006,0.89l2.623,0.343
		c0.057,0.151,0.096,0.253,0.1,0.262l0.033,0.08c0.004,0.012,0.009,0.022,0.014,0.033c0,0,0.041,0.093,0.105,0.233l-1.612,2.098
		c-0.298,0.388-0.331,0.919-0.081,1.341c0.027,0.046,0.69,1.157,2.168,2.636c1.479,1.479,2.592,2.142,2.638,2.169
		c0.421,0.249,0.952,0.217,1.34-0.082l2.098-1.611c0.142,0.064,0.233,0.105,0.233,0.105c0.012,0.004,0.021,0.009,0.033,0.014
		l0.101,0.041c0,0,0.095,0.037,0.241,0.091l0.343,2.624c0.063,0.485,0.416,0.883,0.891,1.006C12.654,31.684,13.909,32,16,32
		s3.346-0.316,3.398-0.33c0.474-0.123,0.826-0.521,0.89-1.006l0.343-2.624c0.152-0.056,0.254-0.096,0.266-0.101l0.109-0.045
		c0,0,0.093-0.041,0.234-0.105l2.097,1.611c0.389,0.299,0.92,0.331,1.341,0.082c0.047-0.027,1.157-0.69,2.637-2.169
		c1.478-1.479,2.141-2.59,2.168-2.636c0.25-0.422,0.217-0.953-0.081-1.341l-1.612-2.098c0.064-0.142,0.105-0.234,0.105-0.234
		c0.005-0.011,0.01-0.021,0.014-0.032l0.041-0.101c0,0,0.037-0.095,0.092-0.241l2.623-0.343c0.485-0.063,0.884-0.416,1.006-0.89
		C31.684,19.346,32,18.092,32,16C32,13.909,31.684,12.654,31.67,12.602z M29.479,18.024l-2.476,0.323
		c-0.453,0.06-0.833,0.37-0.979,0.803c-0.142,0.416-0.304,0.836-0.304,0.836l-0.025,0.062c-0.035,0.08-0.203,0.453-0.379,0.81
		c-0.202,0.41-0.154,0.899,0.125,1.262l1.521,1.979c-0.295,0.383-0.737,0.91-1.345,1.518c-0.608,0.607-1.136,1.051-1.519,1.345
		l-1.979-1.521c-0.363-0.278-0.852-0.326-1.262-0.125c-0.391,0.193-0.799,0.375-0.799,0.375s0.001,0,0.002-0.001l-0.055,0.022
		c0,0-0.432,0.167-0.857,0.312c-0.433,0.146-0.743,0.526-0.803,0.979l-0.323,2.475c-0.479,0.062-1.165,0.123-2.023,0.123
		c-0.86,0-1.547-0.061-2.025-0.123l-0.323-2.475c-0.06-0.453-0.371-0.833-0.803-0.979c-0.416-0.143-0.835-0.304-0.835-0.304
		l-0.063-0.025c-0.08-0.036-0.452-0.203-0.81-0.379c-0.408-0.202-0.898-0.154-1.262,0.124L7.9,26.963
		c-0.383-0.295-0.911-0.737-1.519-1.345c-0.607-0.608-1.05-1.137-1.345-1.519L6.56,22.12c0.278-0.362,0.327-0.852,0.125-1.262
		c-0.179-0.36-0.347-0.735-0.381-0.812l-0.017-0.04C6.284,20,6.12,19.574,5.977,19.151c-0.146-0.433-0.526-0.744-0.979-0.804
		l-2.477-0.323c-0.062-0.479-0.122-1.165-0.122-2.023c0-0.86,0.061-1.547,0.123-2.025l2.476-0.323
		c0.453-0.061,0.833-0.372,0.979-0.805C6.12,12.427,6.285,12,6.287,11.993c0.004-0.009,0.007-0.018,0.011-0.026l0,0
		c0,0,0.188-0.422,0.387-0.825c0.202-0.41,0.153-0.899-0.125-1.262L5.037,7.9c0.295-0.383,0.737-0.91,1.345-1.519
		C6.99,5.774,7.518,5.332,7.9,5.037L9.88,6.56c0.362,0.277,0.852,0.325,1.262,0.124c0.36-0.178,0.736-0.347,0.812-0.38l0.039-0.016
		c0.007-0.003,0.435-0.168,0.857-0.312c0.433-0.146,0.743-0.526,0.803-0.979l0.323-2.476C14.454,2.459,15.141,2.398,16,2.398
		s1.546,0.061,2.024,0.123l0.323,2.476c0.06,0.452,0.371,0.832,0.803,0.979c0.418,0.143,0.84,0.306,0.84,0.306l0,0l0.061,0.023
		c0.084,0.038,0.453,0.205,0.81,0.38c0.409,0.201,0.898,0.153,1.26-0.126l1.98-1.521c0.382,0.295,0.91,0.737,1.518,1.344
		c0.607,0.609,1.05,1.138,1.345,1.52L25.441,9.88c-0.279,0.362-0.327,0.851-0.125,1.261c0.192,0.391,0.374,0.8,0.374,0.8v-0.001
		l0.022,0.053c0.002,0.006,0.167,0.435,0.312,0.857c0.147,0.432,0.526,0.742,0.979,0.803l2.476,0.323
		c0.062,0.479,0.122,1.165,0.122,2.024S29.541,17.546,29.479,18.024z"></path>
      <path d="M16,8.36c-4.213,0-7.64,3.427-7.64,7.64s3.427,7.64,7.64,7.64s7.64-3.427,7.64-7.64S20.213,8.36,16,8.36z M16,21.241
		c-2.89,0-5.241-2.351-5.241-5.241S13.11,10.759,16,10.759c2.891,0,5.241,2.351,5.241,5.241S18.891,21.241,16,21.241z"></path>
    </g>
  </g>
  <g id="info" data-iconmelon="Dripicons:9714327d3f7e3130274bd1b3f8bd4c52">
    <g>
      <path d="M18.143,21.74l-1.353,0.589l1.759-8.93c0.097-0.491-0.101-0.995-0.508-1.288c-0.406-0.294-0.946-0.324-1.383-0.079
		L13.4,13.867c-0.618,0.349-0.836,1.133-0.489,1.75c0.349,0.619,1.132,0.837,1.75,0.489l0.83-0.468l-1.694,8.599
		c-0.092,0.469,0.083,0.95,0.455,1.249c0.232,0.188,0.517,0.283,0.805,0.283c0.174,0,0.348-0.035,0.513-0.106l3.599-1.568
		c0.65-0.283,0.948-1.04,0.665-1.689C19.549,21.754,18.792,21.456,18.143,21.74z"></path>
      <path d="M17.29,9.635c0.484,0,0.954-0.195,1.295-0.536c0.341-0.341,0.539-0.814,0.539-1.299s-0.198-0.958-0.539-1.296
		c-0.342-0.342-0.815-0.539-1.295-0.539c-0.485,0-0.958,0.197-1.299,0.539c-0.341,0.338-0.536,0.812-0.536,1.296
		s0.194,0.958,0.536,1.299S16.805,9.635,17.29,9.635z"></path>
      <path d="M16,0C7.178,0,0,7.178,0,16s7.178,16,16,16s16-7.178,16-16S24.822,0,16,0z M16,29.064C8.796,29.064,2.936,23.203,2.936,16
		C2.936,8.796,8.796,2.936,16,2.936S29.064,8.796,29.064,16C29.064,23.203,23.204,29.064,16,29.064z"></path>
    </g>
  </g>
  <g id="menu" data-iconmelon="Dripicons:7a94fef4485136d7a7fa3ea7105f37b5">
    <g>
      <path d="M2.674,6.713h26.652C30.803,6.713,32,5.517,32,4.04s-1.197-2.674-2.674-2.674H2.674C1.197,1.366,0,2.563,0,4.04
		S1.197,6.713,2.674,6.713z"></path>
      <path d="M29.326,13.326H2.674C1.197,13.326,0,14.523,0,15.999c0,1.477,1.197,2.674,2.674,2.674h26.652
		c1.477,0,2.674-1.197,2.674-2.674C32,14.523,30.803,13.326,29.326,13.326z"></path>
      <path d="M29.326,25.287H2.674C1.197,25.287,0,26.483,0,27.96s1.197,2.674,2.674,2.674h26.652c1.477,0,2.674-1.197,2.674-2.674
		S30.803,25.287,29.326,25.287z"></path>
    </g>
  </g>
</svg>